<?xml version="1.0" standalone="no"?>
<!DOCTYPE svg PUBLIC "-//W3C//DTD SVG 20010904//EN"
 "http://www.w3.org/TR/2001/REC-SVG-20010904/DTD/svg10.dtd">
<svg version="1.0" xmlns="http://www.w3.org/2000/svg"
 width="586.000000pt" height="586.000000pt" viewBox="0 0 586.000000 586.000000"
 preserveAspectRatio="xMidYMid meet">
<metadata>
Created by potrace 1.11, written by Peter Selinger 2001-2013
</metadata>
<g transform="translate(0.000000,586.000000) scale(0.100000,-0.100000)"
fill="#000000" stroke="none">
<path d="M2857 5087 c-71 -18 -151 -125 -173 -230 -2 -10 -6 -28 -10 -40 -10
-32 -13 -65 -19 -237 -8 -214 -19 -403 -30 -500 -2 -19 -7 -64 -10 -99 -8 -81
-18 -106 -49 -126 -71 -47 -285 23 -497 161 -85 56 -105 63 -170 60 -73 -4
-100 -17 -158 -75 -81 -81 -102 -144 -80 -236 13 -55 44 -89 248 -275 117
-107 224 -215 248 -251 9 -13 20 -26 23 -29 39 -33 151 -248 176 -337 32 -120
7 -243 -58 -283 -26 -16 -35 -16 -77 -5 -51 13 -184 78 -266 130 -183 116
-214 135 -220 135 -3 0 -24 9 -48 19 -144 65 -238 57 -277 -23 -35 -73 -26
-177 31 -353 27 -82 54 -131 136 -247 29 -42 147 -162 208 -212 202 -166 545
-310 830 -348 22 -3 56 -8 75 -11 36 -6 136 -14 181 -15 l26 0 -3 -87 c-2 -49
-5 -176 -9 -283 -3 -107 -8 -270 -10 -362 l-5 -166 57 2 58 3 -1 134 c-2 115
-7 319 -19 672 l-3 87 42 1 c72 2 217 16 238 24 7 2 31 7 53 10 222 32 522
153 711 288 153 109 330 307 385 432 39 87 70 210 76 296 5 76 3 92 -16 132
-27 55 -59 71 -138 65 -79 -6 -177 -48 -308 -131 -229 -145 -387 -217 -429
-195 -112 59 -114 253 -5 454 91 168 196 287 496 562 108 100 134 139 138 210
5 69 -20 123 -84 190 -60 63 -100 82 -173 82 -49 0 -79 -12 -157 -64 -125 -83
-246 -137 -358 -159 -146 -28 -174 -10 -187 118 -4 33 -9 83 -11 110 -11 106
-21 277 -30 500 -8 206 -12 231 -51 336 -27 72 -84 142 -131 160 -38 14 -120
18 -166 6z"/>
</g>
</svg>
